<?xml version="1.0" encoding="UTF-8"?>
<svg width="14px" height="15px" viewBox="0 0 14 15" version="1.1" xmlns="http://www.w3.org/2000/svg" xmlns:xlink="http://www.w3.org/1999/xlink">
    <!-- Generator: Sketch 52.1 (67048) - http://www.bohemiancoding.com/sketch -->
    <title>icon/action/perm_identity_24px</title>
    <desc>Created with Sketch.</desc>
    <defs>
        <path d="M12,12 C14.21,12 16,10.21 16,8 C16,5.79 14.21,4 12,4 C9.79,4 8,5.79 8,8 C8,10.21 9.79,12 12,12 Z M12,13 C9.66375,13 5,14.1485714 5,16.4285714 L5,19 L19,19 L19,16.4285714 C19,14.1485714 14.33625,13 12,13 Z" id="path-1"></path>
    </defs>
    <g id="Symbols" stroke="none" stroke-width="1" fill="none" fill-rule="evenodd">
        <g id="icon/action/perm_identity_24px" transform="translate(-5.000000, -4.000000)">
            <mask id="mask-2" fill="white">
                <use xlink:href="#path-1"></use>
            </mask>
            <path stroke="#FFFFFF" d="M12,11.5 C13.9338576,11.5 15.5,9.93385763 15.5,8 C15.5,6.06614237 13.9338576,4.5 12,4.5 C10.0661424,4.5 8.5,6.06614237 8.5,8 C8.5,9.93385763 10.0661424,11.5 12,11.5 Z M5.5,18.5 L18.5,18.5 L18.5,16.4285714 C18.5,14.8932849 14.9495478,13.5 12,13.5 C9.05045222,13.5 5.5,14.8932849 5.5,16.4285714 L5.5,18.5 Z"></path>
        </g>
    </g>
</svg>